<?xml version="1.0" encoding="UTF-8"?>
<svg width="86px" height="86px" viewBox="0 0 86 86" version="1.1" xmlns="http://www.w3.org/2000/svg" xmlns:xlink="http://www.w3.org/1999/xlink">
    <title>icon-launcher-clockwork</title>
    <defs>
        <linearGradient x1="14.6444965%" y1="85.3556206%" x2="85.3552693%" y2="14.6448478%" id="linearGradient-1">
            <stop stop-color="#E36C34" offset="0%"></stop>
            <stop stop-color="#FFB757" offset="100%"></stop>
        </linearGradient>
    </defs>
    <g id="icon-launcher-clockwork" stroke="none" stroke-width="1" fill="none" fill-rule="evenodd">
        <circle id="bg" fill="url(#linearGradient-1)" fill-rule="nonzero" cx="43" cy="43" r="42.7"></circle>
        <circle id="dial" fill="#2C2007" fill-rule="nonzero" opacity="0.9" cx="43" cy="43" r="32.025"></circle>
        <path d="M41.4443356,16 C40.7855356,16 40.2181576,16.4778155 40.1101576,17.1285158 L39.3455068,21.7322266 C38.0312872,21.9581348 36.7607752,22.3074082 35.5380859,22.7605467 L32.5638671,19.1535158 C32.1453671,18.6432158 31.4171266,18.5102829 30.8447266,18.8423829 L28.1552734,20.3980467 C27.5828734,20.7274467 27.3324484,21.4224859 27.5646484,22.0380859 L29.1994141,26.4044921 C28.1857426,27.24927 27.24927,28.1857426 26.4044921,29.1994141 L22.0380859,27.5646484 C21.4224859,27.3324484 20.7274467,27.5828734 20.3980467,28.1552734 L18.8423829,30.8447266 C18.5102829,31.4171266 18.6432158,32.1453671 19.1535158,32.5638671 L22.7605467,35.5380859 C22.3074082,36.7607752 21.9581348,38.0312872 21.7322266,39.3455068 L17.1285158,40.1101576 C16.4778155,40.2208576 16,40.7828356 16,41.4443356 L16,44.5556644 C16,45.2144644 16.4778155,45.7818424 17.1285158,45.8898424 L21.7322266,46.6544932 C21.9581348,47.9687128 22.3074082,49.2392248 22.7605467,50.4619144 L19.1535158,53.4361318 C18.6432155,53.8546318 18.5129829,54.5828731 18.8423829,55.1552731 L20.3980467,57.8447269 C20.7274467,58.4171269 21.4224859,58.6675519 22.0380859,58.4353519 L26.4044921,56.8005856 C27.24927,57.8142574 28.1857426,58.7507308 29.1994141,59.5955068 L27.5646484,63.9619144 C27.3324484,64.5802144 27.5855734,65.2725538 28.1552734,65.6019538 L30.8447266,67.1576182 C31.4171266,67.4870182 32.1453671,67.3540837 32.5638671,66.8464837 L35.5328125,63.2394538 C36.7569185,63.6934372 38.029624,64.0415806 39.3455068,64.2677731 L40.1101576,68.8714837 C40.2208576,69.5221837 40.7828356,70 41.4443356,70 L44.5556644,70 C45.2144644,70 45.7818424,69.5221837 45.8898424,68.8714837 L46.6544932,64.2677731 C47.9687128,64.0418641 49.2392248,63.6925921 50.4619144,63.2394538 L53.4361318,66.8464837 C53.8546318,67.3567837 54.5828731,67.4870182 55.1552731,67.1576182 L57.8447269,65.6019538 C58.4171269,65.2725538 58.6675519,64.5775144 58.4353519,63.9619144 L56.8005856,59.5955068 C57.8142574,58.7507308 58.7507308,57.8142574 59.5955068,56.8005856 L63.9619144,58.4353519 C64.5802144,58.6675519 65.2725538,58.4144269 65.6019538,57.8447269 L67.1576182,55.1552731 C67.4870182,54.5828731 67.3540837,53.8546318 66.8464837,53.4361318 L63.2394538,50.4671875 C63.6934372,49.2430804 64.0415806,47.970376 64.2677731,46.6544932 L68.8714837,45.8898424 C69.5221837,45.7791424 70,45.2171644 70,44.5556644 L70,41.4443356 C70,40.7855356 69.5221837,40.2181576 68.8714837,40.1101576 L64.2677731,39.3455068 C64.0418641,38.0312872 63.6925921,36.7607752 63.2394538,35.5380859 L66.8464837,32.5638671 C67.3567837,32.1453671 67.4870182,31.4171266 67.1576182,30.8447266 L65.6019538,28.1552734 C65.2725538,27.5828734 64.5775144,27.3324484 63.9619144,27.5646484 L59.5955068,29.1994141 C58.7507308,28.1857426 57.8142574,27.24927 56.8005856,26.4044921 L58.4353519,22.0380859 C58.6675519,21.4197859 58.4144269,20.7274467 57.8447269,20.3980467 L55.1552731,18.8423829 C54.5828731,18.5129829 53.8546318,18.6459155 53.4361318,19.1535158 L50.4671875,22.7605467 C49.2430804,22.3065615 47.970376,21.9584208 46.6544932,21.7322266 L45.8898424,17.1285158 C45.7791424,16.4778155 45.2171644,16 44.5556644,16 L41.4443356,16 Z M40.3,27.0425783 L40.3,35.40625 C37.1752087,36.5331182 34.9,39.5084707 34.9,43 C34.9,43.5046867 34.9574017,43.9963162 35.0476563,44.4765625 L27.8230467,48.6478519 C27.1721278,46.8888289 26.8,44.9916226 26.8,43 C26.8,34.9435847 32.6194752,28.3222568 40.3,27.0425783 Z M45.7,27.0425783 C53.3805253,28.3222568 59.2,34.9435847 59.2,43 C59.2,44.9922625 58.822999,46.8883591 58.1716807,48.6478519 L50.9523424,44.4765625 C51.042598,43.9963162 51.1,43.5046867 51.1,43 C51.1,39.5084707 48.824791,36.5331182 45.7,35.40625 L45.7,27.0425783 Z M37.7845693,49.1277337 C39.2015131,50.3377603 41.0101675,51.1 43,51.1 C44.9898325,51.1 46.7984869,50.3377603 48.2154307,49.1277337 L55.4980462,53.3306644 C52.5320476,56.9212621 48.0452875,59.2 43,59.2 C37.9547125,59.2 33.4679535,56.9212621 30.5019533,53.3306644 L37.7845693,49.1277337 Z" id="gear" fill="#EED691" fill-rule="nonzero" transform="translate(43.000000, 43.000000) rotate(30.000000) translate(-43.000000, -43.000000) "></path>
        <circle id="ruby" fill="#A20049" cx="43" cy="43" r="4.5"></circle>
    </g>
</svg>